<svg width="28" height="37" viewBox="0 0 28 37" fill="none" xmlns="http://www.w3.org/2000/svg">
<path d="M26.9749 7.07777L20.8585 1.01598C20.2021 0.365464 19.3119 4.81055e-06 18.3836 0H3.5C1.56698 0 0 1.55299 0 3.46875V33.5312C0 35.447 1.56698 37 3.5 37H24.5C26.433 37 28 35.447 28 33.5312V9.53054C28 8.61057 27.6312 7.72828 26.9749 7.07777ZM25.325 8.71299C25.4744 8.86101 25.5802 9.04671 25.6309 9.25H18.6667V2.34798C18.8718 2.39815 19.0592 2.50298 19.2085 2.65114L25.325 8.71299ZM24.5 34.6875H3.5C2.85564 34.6875 2.33333 34.1699 2.33333 33.5312V3.46875C2.33333 2.83014 2.85564 2.3125 3.5 2.3125H16.3333V9.82812C16.3333 10.786 17.1168 11.5625 18.0833 11.5625H25.6667V33.5312C25.6667 34.1699 25.1444 34.6875 24.5 34.6875ZM12.7261 29.8165L10.8355 29.2726C10.7886 29.2591 10.7448 29.2366 10.7067 29.2063C10.6686 29.176 10.6368 29.1386 10.6133 29.0962C10.5898 29.0538 10.5749 29.0072 10.5695 28.9591C10.5642 28.911 10.5684 28.8623 10.582 28.8158L14.8132 14.3722C14.8268 14.3257 14.8495 14.2823 14.88 14.2446C14.9106 14.2068 14.9483 14.1753 14.9911 14.152C15.0339 14.1287 15.0809 14.1139 15.1294 14.1086C15.178 14.1033 15.2271 14.1075 15.274 14.121L17.1645 14.6649C17.2114 14.6784 17.2552 14.7009 17.2933 14.7312C17.3314 14.7615 17.3632 14.7989 17.3867 14.8413C17.4102 14.8837 17.4251 14.9303 17.4305 14.9784C17.4358 15.0265 17.4316 15.0752 17.418 15.1217L13.1869 29.5653C13.1733 29.6118 13.1506 29.6552 13.12 29.6929C13.0895 29.7307 13.0518 29.7622 13.009 29.7855C12.9662 29.8088 12.9192 29.8236 12.8706 29.8289C12.8221 29.8342 12.773 29.83 12.7261 29.8165ZM9.19355 26.3713L10.5419 24.9459C10.576 24.9099 10.6024 24.8675 10.6196 24.8211C10.6368 24.7748 10.6445 24.7255 10.6421 24.6762C10.6397 24.6269 10.6273 24.5785 10.6057 24.534C10.5841 24.4895 10.5537 24.4498 10.5163 24.4172L7.70912 21.9688L10.5163 19.5203C10.5537 19.4877 10.5841 19.448 10.6057 19.4035C10.6273 19.359 10.6396 19.3106 10.642 19.2613C10.6444 19.212 10.6368 19.1627 10.6196 19.1164C10.6024 19.07 10.5759 19.0276 10.5419 18.9916L9.19348 17.5662C9.16008 17.5309 9.11999 17.5024 9.0755 17.4825C9.03101 17.4625 8.98298 17.4514 8.93417 17.4499C8.88536 17.4483 8.83671 17.4563 8.79101 17.4734C8.74531 17.4904 8.70345 17.5162 8.66782 17.5493L4.20073 21.6999C4.16363 21.7343 4.13406 21.776 4.11385 21.8222C4.09364 21.8685 4.08321 21.9183 4.08321 21.9687C4.08321 22.0191 4.09364 22.069 4.11385 22.1152C4.13406 22.1615 4.16363 22.2031 4.20073 22.2376L8.66782 26.3881C8.70345 26.4212 8.74531 26.447 8.79102 26.4641C8.83672 26.4812 8.88537 26.4892 8.93419 26.4876C8.98301 26.4861 9.03105 26.475 9.07555 26.455C9.12005 26.4351 9.16015 26.4066 9.19355 26.3713ZM19.3321 26.3881L23.7991 22.2376C23.8362 22.2031 23.8658 22.1615 23.886 22.1152C23.9062 22.069 23.9167 22.0191 23.9167 21.9687C23.9167 21.9183 23.9062 21.8685 23.886 21.8222C23.8658 21.776 23.8362 21.7343 23.7991 21.6999L19.3321 17.5493C19.2965 17.5162 19.2546 17.4904 19.2089 17.4734C19.1632 17.4563 19.1146 17.4483 19.0658 17.4499C19.0169 17.4514 18.9689 17.4625 18.9244 17.4825C18.8799 17.5024 18.8398 17.5309 18.8064 17.5662L17.4581 18.9916C17.424 19.0276 17.3976 19.07 17.3804 19.1164C17.3632 19.1627 17.3555 19.212 17.3579 19.2613C17.3603 19.3106 17.3727 19.359 17.3943 19.4035C17.4159 19.448 17.4463 19.4877 17.4837 19.5203L20.2909 21.9688L17.4837 24.4172C17.4463 24.4498 17.4159 24.4895 17.3943 24.534C17.3727 24.5785 17.3603 24.6269 17.3579 24.6762C17.3555 24.7255 17.3631 24.7748 17.3804 24.8211C17.3976 24.8675 17.424 24.9099 17.4581 24.9459L18.8064 26.3713C18.8399 26.4066 18.8799 26.4351 18.9244 26.455C18.9689 26.475 19.017 26.486 19.0658 26.4876C19.1146 26.4892 19.1632 26.4812 19.2089 26.4641C19.2546 26.447 19.2965 26.4212 19.3321 26.3881Z" fill="#003E73"/>
</svg>
