<svg width="28" height="37" viewBox="0 0 28 37" fill="none" xmlns="http://www.w3.org/2000/svg">
<path d="M22.1667 14.0578C19.126 14.0578 16.625 16.3703 16.3552 19.3188C14.5177 19.2248 11.8635 18.7479 9.88021 17.0279C8.4 15.7416 7.57271 14.0039 7.23 11.6842C9.81854 11.0916 11.7895 8.58097 11.7895 5.8421C11.7895 2.64796 9.11765 0 5.89474 0C2.67182 0 0 2.64796 0 5.8421C0 8.63878 2.00521 11.1494 4.66667 11.6842V24.8289C2.00521 25.3637 0 27.8746 0 30.6713C0 33.8655 2.67182 36.5132 5.89474 36.5132C9.11765 36.5132 11.7895 33.8655 11.7895 30.6713C11.7895 27.8746 9.66146 25.3637 7 24.8289V17.3387C7.40104 17.859 7.85312 18.3432 8.35625 18.7768C11.0104 21.0676 14.4302 21.5807 16.625 21.6457C17.3906 23.951 19.5781 25.6203 22.1667 25.6203C25.3896 25.6203 28 23.0332 28 19.8391C28 16.6449 25.3896 14.0578 22.1667 14.0578ZM2.21053 5.8421C2.21053 3.92707 3.96245 2.19079 5.89474 2.19079C7.82703 2.19079 9.57895 3.91984 9.57895 5.83488C9.57895 7.74992 7.82703 9.49342 5.89474 9.49342C3.96245 9.49342 2.21053 7.75714 2.21053 5.8421ZM9.57895 30.6713C9.57895 32.5863 7.82703 34.3224 5.89474 34.3224C3.96245 34.3224 2.21053 32.5863 2.21053 30.6713C2.21053 28.7563 3.96245 27.02 5.89474 27.02C7.82703 27.02 9.57895 28.7563 9.57895 30.6713ZM22.1667 23.3078C20.2344 23.3078 18.6667 21.7541 18.6667 19.8391C18.6667 17.924 20.2344 16.3703 22.1667 16.3703C24.099 16.3703 25.6667 17.924 25.6667 19.8391C25.6667 21.7541 24.099 23.3078 22.1667 23.3078Z" fill="#003E73"/>
</svg>
