<svg width="37" height="37" viewBox="0 0 37 37" fill="none" xmlns="http://www.w3.org/2000/svg">
<path d="M26.598 6.36149C25.7976 6.36145 25.0152 6.59874 24.3498 7.04335C23.6843 7.48797 23.1656 8.11994 22.8593 8.85935C22.553 9.59875 22.4728 10.4124 22.629 11.1973C22.7851 11.9823 23.1705 12.7034 23.7364 13.2693C24.3023 13.8352 25.0233 14.2206 25.8083 14.3768C26.5932 14.5329 27.4069 14.4528 28.1463 14.1465C28.8857 13.8402 29.5177 13.3216 29.9623 12.6561C30.407 11.9907 30.6443 11.2083 30.6443 10.4079C30.6438 9.33492 30.2174 8.30596 29.4587 7.5472C28.6999 6.78845 27.671 6.36197 26.598 6.36149ZM26.598 12.1422C26.255 12.1422 25.9196 12.0405 25.6344 11.85C25.3492 11.6594 25.1269 11.3886 24.9956 11.0717C24.8644 10.7548 24.83 10.4061 24.8969 10.0697C24.9638 9.73328 25.129 9.42426 25.3715 9.18171C25.614 8.93916 25.923 8.77398 26.2594 8.70705C26.5959 8.64012 26.9446 8.67446 27.2615 8.80571C27.5784 8.93697 27.8492 9.15925 28.0398 9.44445C28.2303 9.72964 28.3321 10.0649 28.3321 10.4079C28.3316 10.8677 28.1487 11.3085 27.8236 11.6337C27.4985 11.9588 27.0577 12.1417 26.598 12.1422ZM36.5061 1.39436C36.4211 0.999578 36.0014 0.580242 35.6066 0.495838C33.2879 0 31.4708 0 29.6615 0C22.2046 0 17.7327 3.98887 14.3944 9.24915H6.86636C5.68893 9.24915 4.29458 10.1107 3.76783 11.1639L0.19746 18.303C0.0870578 18.5465 0.0253031 18.8092 0.0156672 19.0764C0.0157999 19.5363 0.198536 19.9773 0.523709 20.3025C0.848881 20.6277 1.28988 20.8105 1.74976 20.8107H9.25973C11.0994 20.8107 12.8638 21.5416 14.1646 22.8425C15.4655 24.1434 16.1963 25.9077 16.1962 27.7475V35.2624C16.1963 35.7223 16.379 36.1633 16.7042 36.4885C17.0294 36.8137 17.4704 36.9965 17.9303 36.9966C18.1975 36.9867 18.4601 36.925 18.7037 36.8148L25.8375 33.2449C26.8894 32.7184 27.7501 31.3253 27.7501 30.149V22.6023C32.9942 19.256 36.9987 14.769 36.9987 7.34893C37.0053 5.53157 37.0053 3.7142 36.5061 1.39436ZM2.68498 18.4983L5.83587 12.1981C5.96967 11.9303 6.56685 11.5614 6.86636 11.5614H13.0147C12.0077 13.5892 10.723 16.1861 9.57815 18.4983L9.58295 18.5311C9.47314 18.5272 4.40947 18.4983 2.68498 18.4983ZM25.4379 30.149C25.4379 30.4475 25.0699 31.0433 24.8028 31.177L18.5083 34.327C18.5083 32.5997 18.4791 27.5297 18.475 27.4177L18.5015 27.4211C20.8137 26.2774 23.4013 24.9937 25.4289 23.9856L25.4379 23.9857L25.4379 30.149ZM18.0612 25.0533C17.6186 23.6126 16.8296 22.3023 15.7634 21.2371C14.6972 20.1719 13.3861 19.3842 11.945 18.9429C15.7048 11.4283 19.1549 2.31222 29.6615 2.31222C31.1909 2.31222 32.6458 2.31222 34.3891 2.61483C34.6974 4.37645 34.692 5.82232 34.6865 7.34893C34.6865 17.8253 25.5103 21.3295 18.0612 25.0533H18.0612ZM7.40243 23.1229C3.92789 23.1229 0.14679 25.9664 0.0121406 34.6875H0V37H2.3125V36.9832C14.7145 36.742 15.6736 28.671 11.9817 24.9606C10.9019 23.8755 9.19382 23.1229 7.40242 23.1229H7.40243ZM11.2263 31.0286C10.2987 33.2796 7.06114 34.6007 2.31109 34.6817C2.31575 34.4248 2.23021 25.4398 7.40242 25.4398C8.49332 25.4398 9.65098 25.8947 10.3516 26.5988C11.2774 27.5291 11.8984 29.3979 11.2263 31.0286H11.2263Z" fill="#003E73"/>
</svg>
